# 3ds Max Wavefront OBJ Exporter v0.99 - (c)2007 guruware
# File Created: 12.12.2025 18:25:32

mtllib rock 3.mtl

#
# object Pyramid001
#

v  -1.1113 35.6172 -4.1632
v  2.3840 31.8672 4.3450
v  5.4592 31.8556 2.9006
v  6.0680 31.4841 -3.1893
v  6.6768 31.1126 -8.3728
v  -0.5969 34.7403 -7.3624
v  -3.9765 34.9376 -6.2680
v  -5.0089 34.9376 -3.2730
v  -6.8417 31.9018 4.5137
v  -16.4235 13.6599 14.8978
v  -15.6186 9.8165 14.2697
v  -12.2226 13.4987 15.9591
v  18.6342 2.9249 14.5949
v  20.0459 5.1123 15.8762
v  16.2906 5.3291 17.3899
v  -15.4938 5.9429 -15.6852
v  -15.8712 3.6959 -14.5817
v  -19.3955 8.6339 -7.1545
v  -10.6916 1.2263 11.3086
v  1.8867 1.2263 -0.6717
v  -4.4025 1.2263 11.3086
v  14.4650 1.2263 11.3086
v  14.4650 1.2263 -0.6717
v  14.4650 1.2263 -9.3438
v  1.8867 1.2263 -12.6519
v  -10.6916 1.2263 -9.3438
v  -10.6916 1.2263 -0.6717
v  -10.6706 27.7240 10.4013
v  -11.3778 27.3861 10.9983
v  -5.2357 19.1382 14.7180
v  -5.4709 26.3084 10.0831
v  12.0298 24.8465 8.1517
v  18.2050 19.3811 4.3013
v  13.2474 24.1035 -2.2154
v  14.4650 24.6503 -12.4425
v  8.1758 21.7160 -15.6122
v  1.4166 21.5570 -17.0523
v  0.9465 24.1497 -12.5824
v  -10.4321 26.8092 -10.7577
v  -12.0927 21.1720 -13.7080
v  -12.5720 26.9495 -0.6022
v  -14.2023 20.5230 13.3323
v  20.7541 15.5349 -18.3980
v  1.8867 17.5465 -18.6420
v  1.8867 18.2684 -17.5161
v  11.3204 16.9016 -18.0944
v  -13.7534 15.5349 -16.6583
v  -16.5861 14.7527 -9.0625
v  -3.7665 31.8903 5.1516
v  10.5709 27.2365 -10.4776
v  -0.0824 31.5072 -10.5616
v  -6.8417 31.9018 -8.3728
v  -8.9066 31.9018 -2.3827
v  1.8867 1.2263 11.3086
v  10.3255 4.0084 14.6121
v  2.0168 5.0919 14.6292
v  0.9064 16.6944 15.1445
v  9.5835 19.6976 13.5266
v  5.8793 24.8696 10.5636
v  -0.2711 24.8927 9.7649
v  21.8505 5.3171 12.1009
v  20.0067 8.3172 16.0070
v  -0.6912 31.8787 5.7895
v  1.8867 18.9902 -18.6965
v  -4.2727 23.4403 -14.6998
v  1.8867 5.9429 -22.5184
v  -6.8036 5.9429 -19.7949
v  -14.2104 5.9731 12.8733
v  -15.2359 4.8345 0.9870
v  -19.0462 14.1170 -0.6717
v  -18.6948 11.3249 2.7704
v  -17.8608 12.4924 9.2183
v  19.6445 3.6959 -14.5817
v  19.1394 3.9533 -1.4951
v  19.7739 16.6944 -2.8258
v  17.6095 21.4941 -15.6122
v  23.8138 6.4578 -2.3186
v  22.4945 5.9429 -17.6689
v  1.8867 2.4240 -17.5851
v  12.1906 5.9429 -20.7868
v  8.5219 9.0271 17.6699
v  21.6929 12.6343 4.5962
v  18.3214 15.1925 13.7177
v  -6.2919 5.5325 14.6464
v  -7.4182 13.3376 16.2520
v  0.7531 12.7251 17.9499
v  16.6361 22.0678 11.4284
v  5.4172 19.6711 -18.0632
v  -5.9334 17.8255 -17.9926
v  3.0808 18.6920 -17.6144
v  22.8321 5.8874 4.8911
# 91 vertices

vn 0.1645 0.9855 0.0427
vn 0.2741 0.7703 0.5757
vn 0.5351 0.7723 0.3425
vn 0.7009 0.7131 0.0155
vn 0.5844 0.7126 -0.3882
vn 0.1547 0.8151 -0.5583
vn -0.3697 0.8191 -0.4386
vn -0.4560 0.8851 0.0927
vn -0.3874 0.8252 0.4110
vn -0.7187 0.0661 0.6922
vn -0.6267 -0.3189 0.7110
vn -0.1361 -0.0095 0.9906
vn 0.3997 -0.7985 0.4501
vn 0.6594 -0.2939 0.6920
vn -0.0614 -0.4114 0.9094
vn -0.6940 -0.0801 -0.7155
vn -0.6357 -0.5893 -0.4986
vn -0.9800 -0.1444 -0.1370
vn -0.3953 -0.7612 0.5141
vn 0.0000 -1.0000 -0.0000
vn -0.0000 -0.8710 0.4913
vn 0.1478 -0.9440 0.2948
vn 0.3157 -0.9489 -0.0000
vn 0.2430 -0.9583 -0.1504
vn 0.0000 -0.9847 -0.1743
vn -0.2430 -0.9583 -0.1504
vn -0.3869 -0.9221 0.0000
vn -0.1716 0.8457 0.5053
vn -0.4137 0.6766 0.6092
vn 0.0435 0.3255 0.9445
vn 0.2195 0.4798 0.8495
vn 0.5506 0.7675 0.3283
vn 0.8600 0.5096 -0.0261
vn 0.7977 0.5992 0.0675
vn 0.5242 0.7608 -0.3826
vn 0.0884 0.5611 -0.8230
vn 0.0153 0.6028 -0.7977
vn 0.0218 0.5755 -0.8175
vn -0.6384 0.4641 -0.6140
vn -0.6814 0.4052 -0.6095
vn -0.9021 0.4285 -0.0502
vn -0.6531 0.3668 0.6626
vn 0.6892 0.2292 -0.6874
vn -0.0532 0.5315 -0.8454
vn -0.0521 -0.1110 -0.9924
vn -0.1578 -0.7150 -0.6811
vn -0.6113 0.1815 -0.7703
vn -0.9090 0.3146 -0.2733
vn -0.1277 0.7632 0.6334
vn 0.4972 0.7727 -0.3946
vn 0.0287 0.4594 -0.8878
vn -0.5399 0.5950 -0.5954
vn -0.7936 0.6083 -0.0118
vn -0.0000 -0.8822 0.4709
vn -0.1000 -0.6077 0.7879
vn -0.0505 -0.4403 0.8964
vn 0.0627 0.4730 0.8788
vn 0.0808 0.3518 0.9326
vn 0.0835 0.5093 0.8565
vn 0.0496 0.4358 0.8987
vn 0.9304 -0.3167 0.1846
vn 0.6642 0.1997 0.7204
vn 0.0887 0.6632 0.7431
vn 0.1629 -0.1859 -0.9690
vn -0.1500 0.5323 -0.8331
vn -0.0622 -0.2645 -0.9624
vn -0.3716 -0.2861 -0.8832
vn -0.6569 -0.4203 0.6260
vn -0.7960 -0.5892 0.1384
vn -0.9764 0.2150 -0.0196
vn -0.9721 -0.1861 0.1430
vn -0.9796 -0.0282 0.1988
vn 0.4640 -0.8462 -0.2620
vn 0.5892 -0.8080 0.0078
vn 0.9102 0.4138 0.0163
vn 0.5846 0.5990 -0.5471
vn 0.9482 -0.3174 -0.0137
vn 0.7344 -0.3771 -0.5643
vn -0.0182 -0.8631 -0.5046
vn 0.2435 -0.2923 -0.9248
vn -0.0472 -0.1169 0.9920
vn 0.9545 0.2736 0.1187
vn 0.6406 0.3048 0.7048
vn -0.1284 -0.3615 0.9235
vn -0.1424 0.0116 0.9897
vn -0.0215 0.1297 0.9913
vn 0.6029 0.6166 0.5063
vn -0.2517 0.4757 -0.8428
vn -0.1533 0.0498 -0.9869
vn 0.4590 0.5179 -0.7219
vn 0.9099 -0.4066 0.0826
# 91 vertex normals

vt 0.4106 0.3703 0.0000
vt 0.4158 0.4620 0.0000
vt 0.3904 0.4621 0.0000
vt 0.3547 0.4299 0.0000
vt 0.3222 0.4062 0.0000
vt 0.3792 0.3623 0.0000
vt 0.3922 0.3391 0.0000
vt 0.4121 0.3279 0.0000
vt 0.4646 0.2709 0.0000
vt 0.5989 0.4968 0.0000
vt 0.6164 0.4595 0.0000
vt 0.6431 0.5060 0.0000
vt 0.8912 0.3219 0.0000
vt 0.9156 0.3325 0.0000
vt 0.8907 0.3607 0.0000
vt 0.5086 0.2013 0.0000
vt 0.5257 0.2130 0.0000
vt 0.4964 0.2980 0.0000
vt 0.2851 0.8310 0.0000
vt 0.1456 0.8722 0.0000
vt 0.2423 0.8076 0.0000
vt 0.1026 0.7281 0.0000
vt 0.0516 0.8208 0.0000
vt 0.0160 0.8879 0.0000
vt 0.1016 0.9632 0.0000
vt 0.2128 0.9862 0.0000
vt 0.2440 0.9203 0.0000
vt 0.5334 0.5105 0.0000
vt 0.5409 0.5180 0.0000
vt 0.4964 0.6201 0.0000
vt 0.4904 0.5291 0.0000
vt 0.3454 0.5565 0.0000
vt 0.2619 0.5833 0.0000
vt 0.2811 0.5019 0.0000
vt 0.2255 0.4416 0.0000
vt 0.2061 0.3774 0.0000
vt 0.2114 0.3225 0.0000
vt 0.2568 0.3341 0.0000
vt 0.3181 0.2554 0.0000
vt 0.2625 0.2213 0.0000
vt 0.3922 0.2127 0.0000
vt 0.5721 0.5947 0.0000
vt 0.5625 0.6771 0.0000
vt 0.9659 0.3147 0.0000
vt 0.9333 0.1533 0.0000
vt 0.9433 0.1516 0.0000
vt 0.9535 0.2320 0.0000
vt 0.2076 0.1881 0.0000
vt 0.1317 0.1184 0.0000
vt 0.2198 0.0720 0.0000
vt 0.2513 0.1381 0.0000
vt 0.4866 0.4445 0.0000
vt 0.4628 0.4543 0.0000
vt 0.2672 0.4243 0.0000
vt 0.3354 0.3520 0.0000
vt 0.3631 0.3036 0.0000
vt 0.4062 0.2773 0.0000
vt 0.7501 0.3474 0.0000
vt 0.8482 0.3086 0.0000
vt 0.8297 0.3607 0.0000
vt 0.7661 0.3958 0.0000
vt 0.4461 0.6537 0.0000
vt 0.3727 0.6245 0.0000
vt 0.3998 0.5596 0.0000
vt 0.4489 0.5488 0.0000
vt 0.2117 0.7464 0.0000
vt 0.2661 0.7383 0.0000
vt 0.2503 0.7686 0.0000
vt 0.4408 0.4635 0.0000
vt 0.1802 0.3174 0.0000
vt 0.2554 0.2907 0.0000
vt 0.0446 0.2830 0.0000
vt 0.0812 0.2002 0.0000
vt 0.1694 0.3184 0.0000
vt 0.6175 0.2972 0.0000
vt 0.6594 0.3827 0.0000
vt 0.6312 0.4240 0.0000
vt 0.5767 0.3366 0.0000
vt 0.3050 0.0873 0.0000
vt 0.4807 0.1689 0.0000
vt 0.3117 0.0457 0.0000
vt 0.3695 0.0287 0.0000
vt 0.4853 0.1870 0.0000
vt 0.8099 0.2136 0.0000
vt 0.7813 0.1458 0.0000
vt 0.8049 0.0849 0.0000
vt 0.8514 0.1884 0.0000
vt 0.2008 0.5635 0.0000
vt 0.1801 0.4483 0.0000
vt 0.1076 0.6357 0.0000
vt 0.0260 0.4981 0.0000
vt 0.1176 0.4647 0.0000
vt 0.6545 0.1277 0.0000
vt 0.7219 0.0541 0.0000
vt 0.8194 0.0457 0.0000
vt 0.5871 0.2335 0.0000
vt 0.6723 0.1640 0.0000
vt 0.5248 0.3951 0.0000
vt 0.8923 0.1629 0.0000
vt 0.2901 0.7783 0.0000
vt 0.3720 0.7493 0.0000
vt 0.2056 0.6410 0.0000
vt 0.2916 0.6665 0.0000
vt 0.9204 0.2908 0.0000
vt 0.8368 0.4233 0.0000
vt 0.6997 0.4197 0.0000
vt 0.7031 0.3648 0.0000
vt 0.5210 0.6841 0.0000
vt 0.4493 0.7047 0.0000
vt 0.3197 0.5989 0.0000
vt 0.7780 0.4843 0.0000
vt 0.6966 0.5046 0.0000
vt 0.9628 0.1637 0.0000
vt 0.8968 0.0189 0.0000
vt 0.1973 0.2539 0.0000
vt 0.1858 0.3440 0.0000
vt 0.9480 0.1540 0.0000
vt 0.9784 0.1091 0.0000
vt 0.9478 0.1589 0.0000
vt 0.9318 0.0854 0.0000
vt 0.0263 0.3840 0.0000
vt 0.6310 0.0773 0.0000
vt 0.5683 0.1313 0.0000
vt 0.1562 0.6953 0.0000
vt 0.1977 0.7814 0.0000
vt 0.5992 0.6695 0.0000
vt 0.4202 0.0153 0.0000
vt 0.4514 0.0888 0.0000
vt 0.5594 0.4523 0.0000
vt 0.9063 0.2266 0.0000
# 130 texture coords

o Pyramid001
g Pyramid001
usemtl Material__200
s 1
f 1/1/1 2/2/2 3/3/3 
f 1/1/1 4/4/4 5/5/5 
f 1/1/1 6/6/6 7/7/7 
f 1/1/1 8/8/8 9/9/9 
f 10/10/10 11/11/11 12/12/12 
f 13/13/13 14/14/14 15/15/15 
f 16/16/16 17/17/17 18/18/18 
f 19/19/19 20/20/20 21/21/21 
f 22/22/22 20/20/20 23/23/23 
f 24/24/24 20/20/20 25/25/25 
f 26/26/26 20/20/20 27/27/27 
f 28/28/28 29/29/29 30/30/30 31/31/31 
f 32/32/32 33/33/33 34/34/34 
f 35/35/35 36/36/36 37/37/37 38/38/38 
f 39/39/39 40/40/40 41/41/41 
f 29/29/29 42/42/42 12/43/12 30/30/30 
f 43/44/43 44/45/44 45/46/45 46/47/46 
f 47/48/47 16/49/16 18/50/18 48/51/48 
f 9/52/9 28/28/28 31/31/31 49/53/49 
f 5/5/5 50/54/50 51/55/51 
f 52/56/52 39/39/39 53/57/53 
f 54/58/54 22/59/22 55/60/55 56/61/56 
f 57/62/57 58/63/58 59/64/59 60/65/60 
f 61/66/61 62/67/62 14/68/14 
f 60/65/60 59/64/59 2/2/2 63/69/63 
f 64/70/64 65/71/65 37/37/37 
f 66/72/66 67/73/67 44/74/44 
f 38/38/38 51/55/51 50/54/50 35/35/35 
f 27/75/27 19/76/19 68/77/68 69/78/69 
f 70/79/70 29/80/29 41/41/41 
f 71/81/71 72/82/72 70/79/70 
f 41/41/41 28/83/28 9/9/9 53/57/53 
f 23/84/23 24/85/24 73/86/73 74/87/74 
f 75/88/75 76/89/76 35/35/35 34/34/34 
f 77/90/77 78/91/78 43/92/43 75/88/75 
f 34/34/34 4/4/4 3/3/3 32/32/32 
f 13/13/13 22/59/22 23/84/23 74/87/74 
f 73/86/73 79/93/79 80/94/80 78/95/78 
f 17/17/17 26/96/26 27/75/27 69/78/69 
f 17/17/17 79/93/79 25/97/25 26/96/26 
f 68/77/68 71/98/71 69/78/69 
f 73/86/73 78/95/78 77/99/77 74/87/74 
f 15/100/15 62/67/62 81/101/81 
f 61/66/61 82/102/82 83/103/83 62/67/62 
f 13/13/13 74/87/74 61/104/61 
f 15/15/15 81/105/81 55/60/55 13/13/13 
f 14/68/14 62/67/62 15/100/15 
f 13/13/13 61/104/61 14/14/14 
f 1/1/1 49/53/49 63/69/63 
f 1/1/1 3/3/3 4/4/4 
f 1/1/1 5/5/5 6/6/6 
f 1/1/1 7/7/7 8/8/8 
f 56/61/56 84/106/84 21/107/21 54/58/54 
f 30/30/30 57/62/57 60/65/60 31/31/31 
f 85/108/85 86/109/86 57/62/57 30/30/30 
f 31/31/31 60/65/60 63/69/63 49/53/49 
f 58/63/58 87/110/87 32/32/32 59/64/59 
f 59/64/59 32/32/32 3/3/3 2/2/2 
f 58/63/58 57/62/57 86/109/86 81/101/81 
f 81/105/81 86/111/86 56/61/56 55/60/55 
f 84/106/84 68/77/68 19/76/19 21/107/21 
f 56/61/56 86/111/86 85/112/85 84/106/84 
f 29/80/29 28/83/28 41/41/41 
f 43/44/43 46/47/46 88/113/88 
f 44/45/44 47/114/47 45/46/45 
f 35/35/35 76/89/76 36/36/36 
f 64/70/64 89/115/89 65/71/65 
f 36/36/36 64/70/64 37/37/37 
f 65/71/65 39/39/39 38/38/38 37/37/37 
f 76/89/76 43/92/43 88/116/88 36/36/36 
f 40/40/40 65/71/65 89/115/89 47/48/47 
f 75/88/75 43/92/43 76/89/76 
f 40/40/40 47/48/47 48/51/48 41/41/41 
f 64/117/64 36/118/36 90/119/90 
f 36/118/36 88/113/88 90/119/90 
f 47/114/47 89/120/89 64/117/64 45/46/45 
f 43/92/43 78/91/78 80/121/80 44/74/44 
f 46/47/46 45/46/45 64/117/64 90/119/90 
f 46/47/46 90/119/90 88/113/88 
f 40/40/40 39/39/39 65/71/65 
f 67/73/67 16/49/16 47/48/47 44/74/44 
f 80/121/80 66/72/66 44/74/44 
f 79/93/79 66/122/66 80/94/80 
f 67/123/67 66/122/66 79/93/79 
f 73/86/73 24/85/24 25/97/25 79/93/79 
f 17/17/17 16/16/16 67/123/67 79/93/79 
f 18/50/18 70/79/70 48/51/48 
f 69/78/69 71/98/71 18/18/18 
f 18/50/18 71/81/71 70/79/70 
f 17/17/17 69/78/69 18/18/18 
f 48/51/48 70/79/70 41/41/41 
f 1/1/1 63/69/63 2/2/2 
f 1/1/1 9/52/9 49/53/49 
f 39/39/39 41/41/41 53/57/53 
f 39/39/39 52/56/52 51/55/51 
f 6/6/6 51/55/51 52/56/52 7/7/7 
f 7/7/7 52/56/52 53/57/53 8/8/8 
f 8/8/8 53/57/53 9/9/9 
f 5/5/5 51/55/51 6/6/6 
f 50/54/50 5/5/5 4/4/4 
f 34/34/34 35/35/35 50/54/50 4/4/4 
f 38/38/38 39/39/39 51/55/51 
f 91/124/91 77/90/77 82/102/82 
f 82/102/82 33/33/33 87/110/87 83/103/83 
f 61/66/61 91/124/91 82/102/82 
f 75/88/75 33/33/33 82/102/82 
f 77/90/77 75/88/75 82/102/82 
f 20/20/20 24/24/24 23/23/23 
f 20/20/20 22/22/22 54/125/54 
f 20/20/20 54/125/54 21/21/21 
f 20/20/20 26/26/26 25/25/25 
f 20/20/20 19/19/19 27/27/27 
f 11/11/11 68/77/68 85/112/85 12/12/12 
f 42/42/42 10/126/10 12/43/12 
f 72/82/72 10/127/10 42/128/42 
f 11/11/11 10/10/10 72/129/72 
f 68/77/68 84/106/84 85/112/85 
f 68/77/68 11/11/11 72/129/72 71/98/71 
f 12/43/12 85/108/85 30/30/30 
f 72/82/72 42/128/42 29/80/29 70/79/70 
f 62/67/62 83/103/83 87/110/87 58/63/58 81/101/81 
f 22/59/22 13/13/13 55/60/55 
f 74/87/74 77/99/77 91/130/91 
f 74/87/74 91/130/91 61/104/61 
f 32/32/32 87/110/87 33/33/33 
f 33/33/33 75/88/75 34/34/34 
# 51 polygons - 75 triangles

